<svg width="170" height="21" viewBox="0 0 170 21" fill="none" xmlns="http://www.w3.org/2000/svg">
<path fill-rule="evenodd" clip-rule="evenodd" d="M156.541 2.23339C157.66 0.743922 159.624 0 162.431 0C165.238 0 167.203 0.745543 168.321 2.23339C169.439 3.72285 170 6.36467 170 10.1588C170 13.953 169.439 16.5948 168.321 18.0843C167.201 19.5737 165.238 20.3177 162.431 20.3177C159.624 20.3177 157.66 19.5721 156.541 18.0843C155.423 16.5964 154.862 13.953 154.862 10.1588C154.862 6.36467 155.423 3.72285 156.541 2.23339ZM166.814 3.5154C165.997 2.27229 164.536 1.65154 162.431 1.65154C160.326 1.65154 158.859 2.27229 158.036 3.5154C157.209 4.75851 156.796 6.97407 156.796 10.1605C156.796 13.3468 157.209 15.5624 158.036 16.8055C158.861 18.0486 160.326 18.6694 162.431 18.6694C164.536 18.6694 165.997 18.0486 166.814 16.8055C167.629 15.5624 168.036 13.3468 168.036 10.1605C168.036 6.97407 167.627 4.75851 166.814 3.5154ZM81.2415 10.4425L85.4246 11.3258V11.3274H85.4262C86.4311 11.5186 87.1377 11.8671 87.5462 12.3809C87.953 12.8946 88.1572 13.7666 88.1572 15C88.1572 16.4992 87.8541 17.4765 87.2463 17.9319C86.6386 18.3874 85.4732 18.6256 83.7471 18.6434C82.1539 18.6434 80.1799 18.5851 77.8282 18.4716L77.7147 19.8655C79.5381 20.1507 81.53 20.2917 83.692 20.2917C84.8703 20.2917 85.8185 20.2301 86.5397 20.107C87.2593 19.9822 87.9044 19.7407 88.4749 19.3809C89.0421 19.0178 89.4505 18.4878 89.6969 17.7861C89.9416 17.0843 90.0664 16.1637 90.0664 15.0259C90.0664 13.4133 89.7682 12.1831 89.1702 11.3404C88.5721 10.4976 87.5413 9.93355 86.081 9.6483L81.9838 8.79578C80.9967 8.60454 80.2982 8.25121 79.8914 7.72771C79.4846 7.20421 79.2804 6.35494 79.2804 5.1799C79.2804 4.3436 79.3533 3.68881 79.4943 3.21556C79.6353 2.7423 79.9206 2.3906 80.3468 2.16207C80.7731 1.93355 81.2058 1.79578 81.6418 1.74878C82.0778 1.70178 82.7601 1.67747 83.6904 1.67747C85.0762 1.67747 86.8865 1.73582 89.1264 1.84927L89.2674 0.482979C87.5964 0.178278 85.7083 0.027549 83.6029 0.027549C82.4262 0.00810008 81.4959 0.0518602 80.8136 0.155588C80.1329 0.259316 79.5073 0.481358 78.9368 0.823335C78.3663 1.16531 77.9692 1.68233 77.7407 2.37439C77.5121 3.06645 77.3987 3.98379 77.3987 5.12155C77.3987 6.69854 77.6937 7.90762 78.282 8.7504C78.8703 9.59319 79.8574 10.1572 81.2415 10.4425ZM55.06 19.9741V0.341982C56.7488 0.170183 59.12 0.0859043 62.1751 0.0859043C64.7537 0.0859043 66.5235 0.526747 67.483 1.40843C68.4409 2.29174 68.9206 3.95625 68.9206 6.40195C68.9206 8.84766 68.4652 10.5154 67.5543 11.3955C66.6435 12.2788 65.0033 12.718 62.6321 12.718C61.2286 12.718 59.8898 12.6434 58.6192 12.4895V19.9741H55.06ZM58.6192 9.81848H62.0908C63.3436 9.79903 64.1962 9.55754 64.6532 9.09239C65.1086 8.62885 65.3355 7.73258 65.3355 6.40357C65.3355 5.07456 65.107 4.17991 64.6532 3.71475C64.1962 3.25122 63.3436 3.01621 62.0908 3.01621H58.6192V9.81848ZM3.35656 11.128H5.29173L5.29336 11.1264H5.29498L10.9287 19.9773H14.9141L9.47812 11.4959C9.11507 10.9254 8.60454 10.3679 7.94003 9.81685V9.73258C8.49109 9.25932 8.92707 8.76661 9.2496 8.25283L14.5413 0.341975H10.671L5.29173 8.39546H3.35656C3.48947 7.71313 3.55592 6.95462 3.55592 6.11831V0.341975H0V19.9773H3.55592V13.0632C3.55592 12.3809 3.48784 11.7358 3.35656 11.128ZM43.7342 15.3955V0.341975H40.175V15.9643C40.175 18.6775 41.645 20.034 44.5867 20.034C47.9254 20.034 50.5235 19.9498 52.3841 19.778L52.2431 17.0178H45.4133C44.786 17.0178 44.3501 16.8995 44.1037 16.6613C43.8574 16.4263 43.7342 16.0032 43.7342 15.3955ZM107.28 1.99189H100.736V19.9773H98.8574V1.99189H92.3404V0.340353H107.28V1.99189ZM124.47 12.5511V0.341975H124.467H122.59V12.5511C122.59 14.8088 122.211 16.3922 121.452 17.3031C120.692 18.2139 119.392 18.6694 117.496 18.6694C115.6 18.6694 114.266 18.2139 113.498 17.3031C112.728 16.3922 112.345 14.8104 112.345 12.5511V0.341975H110.496V12.5511C110.496 15.3793 111.028 17.3809 112.091 18.5559C113.152 19.731 115.031 20.3193 117.554 20.3193C120.078 20.3193 121.861 19.731 122.904 18.5559C123.946 17.3793 124.47 15.3776 124.47 12.5511ZM129.621 19.9789V0.341982C131.972 0.170183 134.241 0.0859043 136.423 0.0859043C139.193 0.0859043 141.133 0.831447 142.241 2.31929C143.352 3.80876 143.906 6.42302 143.906 10.1605C143.906 13.8979 143.352 16.5105 142.241 18.0016C141.131 19.4911 139.193 20.235 136.423 20.235C134.279 20.235 132.011 20.1507 129.621 19.9789ZM131.47 1.79417V18.5267C133.368 18.564 135.016 18.5835 136.423 18.5835C138.491 18.5835 139.929 17.9676 140.734 16.7326C141.54 15.4992 141.943 13.3079 141.943 10.1588C141.943 7.00973 141.54 4.81362 140.734 3.57051C139.929 2.3274 138.491 1.70665 136.423 1.70665C136.081 1.70665 134.431 1.7342 131.47 1.79093V1.79417ZM148.459 19.9789H150.308V0.341975H148.459V19.9789ZM33.0405 20.1166C32.9887 20.1641 32.9371 20.2114 32.8849 20.2577H32.8898V20.2545C32.9028 20.282 32.9149 20.31 32.9271 20.3379C32.9392 20.3659 32.9514 20.3938 32.9644 20.4214C33.186 20.349 33.4106 20.2834 33.635 20.2179C34.1292 20.0735 34.6228 19.9294 35.0843 19.7131C36.9773 18.8282 37.8039 17.3079 37.4749 15.2383C37.3452 14.4133 37.1086 13.5608 36.7148 12.8314C35.4976 10.5738 34.2545 8.31929 32.8882 6.14749C31.1718 3.41816 27.3955 3.5543 25.9579 6.34036C25.183 7.84315 24.3194 9.30043 23.456 10.7574C23.0679 11.4123 22.6798 12.0672 22.2999 12.7261C21.9271 13.3728 21.5494 13.402 21.0665 12.8201C20.6256 12.2917 20.6272 11.5089 21.0973 10.6937C22.1588 8.84441 23.2221 6.99676 24.3031 5.15884C24.5462 4.74555 24.8412 4.35819 25.1556 3.99676C26.577 2.36467 28.5689 1.88655 30.5835 2.66937C30.6794 2.70775 30.7775 2.73772 30.8993 2.77495C30.9627 2.79432 31.0325 2.81566 31.1118 2.84117C28.9222 -0.275522 25.7034 -0.455425 23.2934 2.31443C23.2848 2.32433 23.2762 2.33424 23.2677 2.34415C23.1105 2.52571 22.9513 2.70971 22.8315 2.91411C22.424 3.60798 22.007 4.29706 21.59 4.98618C20.5935 6.63262 19.597 8.27924 18.731 9.9919C17.2934 12.8347 19.308 15.8849 22.4036 15.7585C23.9599 15.6972 25.5207 15.7357 27.0815 15.7742C27.9979 15.7967 28.9143 15.8193 29.8298 15.8217C30.4765 15.8233 30.5041 16.1653 30.3874 16.6143C30.2042 17.3161 29.6418 17.6353 28.9951 17.6483C28.4332 17.6596 27.871 17.6745 27.3087 17.6894C25.281 17.7433 23.2525 17.7971 21.235 17.6791C18.8298 17.5397 17.3031 15.8995 16.9076 13.5008C16.8952 13.4293 16.8655 13.3618 16.8263 13.2724C16.8041 13.222 16.7789 13.1646 16.752 13.0956C16.2123 14.3825 15.9822 15.6175 16.3063 16.8817C16.8217 18.8914 18.3679 19.8817 20.2383 20.0114C23.3193 20.2253 26.4392 20.3517 29.5122 20.1151C32.6321 19.8752 33.8412 16.5073 32.3922 14.1961C31.5339 12.828 30.759 11.4077 29.9841 9.98727C29.5518 9.19496 29.1195 8.40258 28.6726 7.61913C28.4052 7.15073 28.5657 6.953 28.9903 6.80714C29.684 6.56727 30.389 6.91411 30.9125 7.77472C31.0296 7.96773 31.1468 8.16068 31.264 8.35362C32.0501 9.64806 32.8362 10.9423 33.5964 12.2512C34.0211 12.9838 34.4457 13.731 34.7375 14.5186C35.4943 16.5754 34.9417 18.4992 33.2739 19.9076C33.1945 19.9754 33.1174 20.0461 33.0405 20.1166ZM26.902 9.6562C26.3567 10.603 25.8407 11.4978 25.3143 12.4108C25.1525 12.6912 24.9898 12.9734 24.825 13.2593H28.9757C28.492 12.4193 28.0299 11.6162 27.5548 10.7907C27.3409 10.4189 27.1243 10.0425 26.902 9.6562Z" fill="black"/>
</svg>
